<?xml version="1.0"?>
<svg xmlns:rdf="http://www.w3.org/1999/02/22-rdf-syntax-ns#" xmlns="http://www.w3.org/2000/svg" xmlns:cc="http://creativecommons.org/ns#" xmlns:xlink="http://www.w3.org/1999/xlink" xmlns:dc="http://purl.org/dc/elements/1.1/" xmlns:svg="http://www.w3.org/2000/svg" id="svg2" viewBox="0 0 668.76 490.7" version="1.1">
  <defs id="defs4">
    <filter id="filter5762" height="2.822" width="1.911" y="-.91102" x="-.45551" color-interpolation-filters="sRGB">
      <feGaussianBlur id="feGaussianBlur5764" stdDeviation="3.355151"/>
    </filter>
    <filter id="filter5776" height="3.198" width="2.099" y="-1.099" x="-.5495" color-interpolation-filters="sRGB">
      <feGaussianBlur id="feGaussianBlur5778" stdDeviation="20.352958"/>
    </filter>
    <radialGradient id="radialGradient3795" gradientUnits="userSpaceOnUse" cy="846.41" cx="656.14" gradientTransform="matrix(3.5682 4.4249e-7 -5.358e-7 4.3206 -1929.3 -2893.1)" r="34.027">
      <stop id="stop5306" stop-color="#3c2828" offset="0"/>
      <stop id="stop5310" stop-color="#0a0000" offset="1"/>
    </radialGradient>
    <radialGradient id="radialGradient3800" gradientUnits="userSpaceOnUse" cy="860.85" cx="591.85" gradientTransform="matrix(.000061227 14.313 -12.754 .00010456 11290 -7579.1)" r="11.572">
      <stop id="stop3019" stop-color="#281414" offset="0"/>
      <stop id="stop3021" offset="1"/>
    </radialGradient>
    <radialGradient id="radialGradient3819" gradientUnits="userSpaceOnUse" cy="831.69" cx="523.09" gradientTransform="matrix(1.3341 .0000051297 -.0000047974 1.3421 -174.75 -284.61)" r="3.3036">
      <stop id="stop5501" stop-color="#504646" offset="0"/>
      <stop id="stop5507" stop-color="#281e1e" offset=".5"/>
      <stop id="stop5503" stop-color="#0a0000" offset="1"/>
    </radialGradient>
  </defs>
  <g id="layer1" transform="translate(-43.458 -589.25)">
    <g id="g3835">
      <path id="path5630" opacity=".88298" filter="url(#filter5776)" d="m510.63 891.75a44.447 22.223 0 1 1 -88.89 0 44.447 22.223 0 1 1 88.89 0z" transform="matrix(3.5841 0 0 2.147 -1293 -987.2)"/>
      <path id="path5768" opacity=".88298" filter="url(#filter5762)" d="m582.1 903.74a8.8388 4.4194 0 1 1 -17.68 0 8.8388 4.4194 0 1 1 17.68 0z" transform="matrix(2.5664 0 0 2.2224 -1128.5 -1113.9)"/>
      <path id="path5770" opacity=".88298" filter="url(#filter5762)" d="m582.1 903.74a8.8388 4.4194 0 1 1 -17.68 0 8.8388 4.4194 0 1 1 17.68 0z" transform="matrix(2.5664 0 0 2.2224 -1064.6 -1098.6)"/>
      <path id="path5772" opacity=".88298" filter="url(#filter5762)" d="m582.1 903.74a8.8388 4.4194 0 1 1 -17.68 0 8.8388 4.4194 0 1 1 17.68 0z" transform="matrix(2.5664 0 0 2.2224 -995.19 -1095)"/>
      <path id="path5766" opacity=".88298" filter="url(#filter5762)" d="m582.1 903.74a8.8388 4.4194 0 1 1 -17.68 0 8.8388 4.4194 0 1 1 17.68 0z" transform="matrix(2.5664 0 0 2.2224 -1114.1 -1062.6)"/>
      <path id="path5640" opacity=".88298" filter="url(#filter5762)" d="m582.1 903.74a8.8388 4.4194 0 1 1 -17.68 0 8.8388 4.4194 0 1 1 17.68 0z" transform="matrix(2.5664 0 0 2.2224 -1196.1 -1078.4)"/>
      <path id="path5774" opacity=".88298" filter="url(#filter5762)" d="m582.1 903.74a8.8388 4.4194 0 1 1 -17.68 0 8.8388 4.4194 0 1 1 17.68 0z" transform="matrix(2.5664 0 0 2.2224 -1016.8 -1060.8)"/>
      <g id="g3827">
        <path id="path5471" d="m287.6 836.84s-96.85-30.58-89.21-161.84" stroke="#1e0a0a" stroke-linecap="round" stroke-width="9.6341" fill="none"/>
        <path id="path5489" d="m526.41 835.2a3.3036 3.5714 0 1 1 0.76 -1.11" fill="url(#radialGradient3819)" transform="matrix(5.9212 0 0 5.7091 -2907.6 -4092)"/>
      </g>
      <g id="g3831">
        <path id="path5515" d="m310.56 802.08s-86.85-52.66-48.32-178.37" stroke="#1e0a0a" stroke-linecap="round" stroke-width="9.6341" fill="none"/>
        <path id="path5517" d="m526.41 835.2a3.3036 3.5714 0 1 1 0.76 -1.11" fill="url(#radialGradient3819)" transform="matrix(5.7527 1.4027 -1.3524 5.5466 -1626.1 -4743.4)"/>
      </g>
      <path id="path5465" stroke-linejoin="round" d="m486.8 890.76c0.87-6.89-2.35-15.15-3.24 14.53-18.42 0.27-25.04 11.73-6.1 13.19 18.93 1.45 19.42-2.24 11.47-10.26 1.5-34.21-3-10.56-2.13-17.46z" stroke="#000" stroke-linecap="round" stroke-width="1.9332" fill="#140a0a"/>
      <path id="path5426" stroke-linejoin="round" d="m351.63 877.92c0.88-6.89-2.34-21.23-3.23 8.45-18.42 0.27-25.04 11.73-6.11 13.18 18.94 1.46 19.43-2.23 11.48-10.25 1.5-34.21-3.01-4.48-2.14-11.38z" stroke="#000" stroke-linecap="round" stroke-width="1.9332" fill="#140a0a"/>
      <path id="path5459" stroke-linejoin="round" d="m414.04 888.06c0.87-6.9-2.58-20.56-3.47 9.12-18.42 0.27-25.04 11.73-6.1 13.19 18.93 1.45 19.42-2.24 11.47-10.26 1.5-34.21-2.78-5.15-1.9-12.05z" stroke="#000" stroke-linecap="round" stroke-width="1.9332" fill="#140a0a"/>
      <path id="path5368" transform="matrix(3.5044 .67139 -.67139 3.5044 -1108.6 -2676.2)" d="m576.05 903.16a3.0305 3.0305 0 1 1 5.75 1.52"/>
      <path id="path3004" stroke-linejoin="round" d="m357.47 800.24c-19.59 6.88-50.14 26.78-59.36 68.45-20.12-7.23-20.82-7.64-28.35-21.02-2.25-4 5.05-38.95 34.72-50.02 28.17-10.51 56.62 3.72 52.99 2.59z" stroke="#0a0a0a" stroke-linecap="round" stroke-width="2.4977" fill="url(#radialGradient3800)"/>
      <path id="path5370" d="m576.05 903.16a3.0305 3.0305 0 1 1 5.75 1.52" transform="matrix(3.5435 -.41852 .41852 3.5435 -2052.4 -2062.7)"/>
      <path id="path5372" transform="matrix(3.3842 -1.1309 1.1309 3.3842 -2515.7 -1502.1)" d="m576.05 903.16a3.0305 3.0305 0 1 1 5.75 1.52"/>
      <path id="path5275" stroke-linejoin="round" d="m397.72 790.23c-45.21-0.73-93.96 42.98-99.35 80.62 1.51 1.58 3.46 3.1 5.58 4.57 1.41-3.82 5.05-6.46 9.37-6.46 5.53 0 10.03 4.39 10.03 9.92 0 1.95-0.7 3.81-1.67 5.35 12.52 4.76 28.44 8.65 45.72 11.6 0.75-4.78 4.81-8.48 9.81-8.48 5.53 0 10.03 4.51 10.03 10.04 0 0.46-0.05 0.89-0.11 1.34 22.83 2.8 46.83 3.97 68.35 3.45-0.22-0.82-0.44-1.66-0.44-2.56 0-5.53 4.5-10.04 10.03-10.04 5.54 0 10.04 4.51 10.04 10.04 0 0.54-0.14 1.04-0.22 1.56 27.13-2.26 47.28-7.92 50.51-17.62-22.23-53.09-77.27-87.56-127.68-93.33z" stroke="#1e0a0a" stroke-linecap="round" stroke-width="2.4977" fill="url(#radialGradient3795)"/>
      <path id="path5343" d="m370.67 795.46c59.08 5.58 129.1 44.03 149.99 93.21" stroke="#1e0a0a" stroke-linecap="round" stroke-width="3.5682px" fill="none"/>
      <path id="path5374" stroke-linejoin="round" d="m316.94 877.25c0.87-6.9-33.43 11.88-34.32 41.56-18.42 0.27-25.04 11.73-6.11 13.18 18.94 1.46 19.43-2.23 11.48-10.25 1.5-34.21 28.08-37.59 28.95-44.49z" stroke="#000" stroke-linecap="round" stroke-width="1.9332" fill="#140a0a"/>
      <path id="path5420" stroke-linejoin="round" d="m378.9 893.01c-0.49-7.57-18.74 14.14-19.62 43.82-18.26 0.27-24.82 11.73-6.05 13.19 18.77 1.45 19.26-2.24 11.38-10.26 1.49-34.21 14.77-39.17 14.29-46.75z" stroke="#000" stroke-linecap="round" stroke-width="1.9251" fill="#140a0a"/>
      <path id="path5449" stroke-linejoin="round" d="m468.16 895.62c-3.96-4.41-21.75 18.16-13.89 43.47-18.41 0.26-25.03 11.72-6.1 13.18 18.94 1.45 18.95-4.63 11-12.64-9.11-35.43 12.95-39.61 8.99-44.01z" stroke="#000" stroke-linecap="round" stroke-width="1.9332" fill="#140a0a"/>
    </g>
  </g>
  <metadata>
    <rdf:RDF>
      <cc:Work>
        <dc:format>image/svg+xml</dc:format>
        <dc:type rdf:resource="http://purl.org/dc/dcmitype/StillImage"/>
        <cc:license rdf:resource="http://creativecommons.org/licenses/publicdomain/"/>
        <dc:publisher>
          <cc:Agent rdf:about="http://openclipart.org/">
            <dc:title>Openclipart</dc:title>
          </cc:Agent>
        </dc:publisher>
        <dc:title>Cockroach</dc:title>
        <dc:date>2010-07-20T09:34:19</dc:date>
        <dc:description>animal, antenna, black, bug, clip art, clipart, cockroach, colour, green, insect, outline, shadow, </dc:description>
        <dc:source>http://openclipart.org/detail/73945/cockroach-by-trnsltlife</dc:source>
        <dc:creator>
          <cc:Agent>
            <dc:title>TrnsltLife</dc:title>
          </cc:Agent>
        </dc:creator>
        <dc:subject>
          <rdf:Bag>
            <rdf:li>animal</rdf:li>
            <rdf:li>antenna</rdf:li>
            <rdf:li>black</rdf:li>
            <rdf:li>bug</rdf:li>
            <rdf:li>clip art</rdf:li>
            <rdf:li>clipart</rdf:li>
            <rdf:li>cockroach</rdf:li>
            <rdf:li>colour</rdf:li>
            <rdf:li>green</rdf:li>
            <rdf:li>insect</rdf:li>
            <rdf:li>outline</rdf:li>
            <rdf:li>shadow</rdf:li>
          </rdf:Bag>
        </dc:subject>
      </cc:Work>
      <cc:License rdf:about="http://creativecommons.org/licenses/publicdomain/">
        <cc:permits rdf:resource="http://creativecommons.org/ns#Reproduction"/>
        <cc:permits rdf:resource="http://creativecommons.org/ns#Distribution"/>
        <cc:permits rdf:resource="http://creativecommons.org/ns#DerivativeWorks"/>
      </cc:License>
    </rdf:RDF>
  </metadata>
</svg>
